<svg width="203" height="41" viewBox="0 0 203 41" fill="none" xmlns="http://www.w3.org/2000/svg">
<path d="M31.1224 18.2104C29.9867 19.3456 29.4191 20.9246 29.5741 22.5178L29.5474 22.4913C29.7067 24.3661 29.026 26.2154 27.6868 27.5458C26.3476 28.8762 24.4862 29.5525 22.599 29.3942L22.6257 29.4207C20.3407 29.2094 18.1678 30.4442 17.1926 32.5079C16.2175 34.5717 16.6496 37.0213 18.273 38.6326C19.8965 40.2439 22.3626 40.671 24.439 39.7004C26.5155 38.7298 27.7564 36.5699 27.5417 34.3001L27.5698 34.3266C27.4105 32.4518 28.0912 30.6025 29.4304 29.2721C30.7696 27.9417 32.631 27.2654 34.5182 27.4236L34.4901 27.3972C37.0013 27.6215 39.338 26.1004 40.1334 23.7234C40.9288 21.3464 39.9739 18.7382 37.8273 17.4242C35.6807 16.1102 32.9063 16.4358 31.1269 18.2104H31.1224Z" fill="#5454D4"/>
<path d="M31.1224 18.2104C29.9867 19.3456 29.4191 20.9246 29.5741 22.5178L29.5474 22.4913C29.7067 24.3661 29.026 26.2154 27.6868 27.5458C26.3476 28.8762 24.4862 29.5525 22.599 29.3942L22.6257 29.4207C20.3407 29.2094 18.1678 30.4442 17.1926 32.5079C16.2175 34.5717 16.6496 37.0213 18.273 38.6326C19.8965 40.2439 22.3626 40.671 24.439 39.7004C26.5155 38.7298 27.7564 36.5699 27.5417 34.3001L27.5698 34.3266C27.4105 32.4518 28.0912 30.6025 29.4304 29.2721C30.7696 27.9417 32.631 27.2654 34.5182 27.4236L34.4901 27.3972C37.0013 27.6215 39.338 26.1004 40.1334 23.7234C40.9288 21.3464 39.9739 18.7382 37.8273 17.4242C35.6807 16.1102 32.9063 16.4358 31.1269 18.2104H31.1224Z" stroke="black"/>
<path d="M31.1224 18.2104C29.9867 19.3456 29.4191 20.9246 29.5741 22.5178L29.5474 22.4913C29.7067 24.3661 29.026 26.2154 27.6868 27.5458C26.3476 28.8762 24.4862 29.5525 22.599 29.3942L22.6257 29.4207C20.3407 29.2094 18.1678 30.4442 17.1926 32.5079C16.2175 34.5717 16.6496 37.0213 18.273 38.6326C19.8965 40.2439 22.3626 40.671 24.439 39.7004C26.5155 38.7298 27.7564 36.5699 27.5417 34.3001L27.5698 34.3266C27.4105 32.4518 28.0912 30.6025 29.4304 29.2721C30.7696 27.9417 32.631 27.2654 34.5182 27.4236L34.4901 27.3972C37.0013 27.6215 39.338 26.1004 40.1334 23.7234C40.9288 21.3464 39.9739 18.7382 37.8273 17.4242C35.6807 16.1102 32.9063 16.4358 31.1269 18.2104H31.1224Z" stroke="black" stroke-opacity="0.2"/>
<path d="M31.1224 18.2104C29.9867 19.3456 29.4191 20.9246 29.5741 22.5178L29.5474 22.4913C29.7067 24.3661 29.026 26.2154 27.6868 27.5458C26.3476 28.8762 24.4862 29.5525 22.599 29.3942L22.6257 29.4207C20.3407 29.2094 18.1678 30.4442 17.1926 32.5079C16.2175 34.5717 16.6496 37.0213 18.273 38.6326C19.8965 40.2439 22.3626 40.671 24.439 39.7004C26.5155 38.7298 27.7564 36.5699 27.5417 34.3001L27.5698 34.3266C27.4105 32.4518 28.0912 30.6025 29.4304 29.2721C30.7696 27.9417 32.631 27.2654 34.5182 27.4236L34.4901 27.3972C37.0013 27.6215 39.338 26.1004 40.1334 23.7234C40.9288 21.3464 39.9739 18.7382 37.8273 17.4242C35.6807 16.1102 32.9063 16.4358 31.1269 18.2104H31.1224Z" stroke="black" stroke-opacity="0.2"/>
<path d="M20.2025 25.953L20.1744 25.9265C21.779 26.0872 23.3715 25.5234 24.5124 24.3909C25.6532 23.2584 26.2219 21.6767 26.0614 20.0824L26.0895 20.1089C25.9302 18.2341 26.611 16.3848 27.9501 15.0544C29.2893 13.724 31.1508 13.0477 33.0379 13.206L33.0098 13.1795C35.2949 13.3927 37.4692 12.1593 38.4458 10.0958C39.4224 8.03236 38.9916 5.58206 37.3687 3.96974C35.7457 2.35741 33.2793 1.92938 31.2022 2.8996C29.1252 3.86982 27.8837 6.02989 28.0983 8.30007L28.0716 8.27213C28.2315 10.1471 27.5509 11.9967 26.2116 13.3272C24.8723 14.6578 23.0105 15.3339 21.1232 15.1751L21.1499 15.203C19.5452 15.0424 17.9527 15.6061 16.8118 16.7387C15.671 17.8712 15.1023 19.4528 15.2628 21.0471L15.2362 21.0207C15.395 22.8954 14.7141 24.7443 13.375 26.0746C12.0359 27.4049 10.1748 28.0813 8.28778 27.9236L8.31442 27.9501C6.02929 27.7369 3.855 28.9703 2.87839 31.0337C1.90178 33.0972 2.33263 35.5475 3.95557 37.1598C5.57852 38.7721 8.04495 39.2002 10.122 38.23C12.199 37.2597 13.4406 35.0997 13.226 32.8295L13.2541 32.856C13.0948 30.9811 13.7755 29.1319 15.1147 27.8014C16.4539 26.471 18.3153 25.7948 20.2025 25.953V25.953Z" fill="#FF7143"/>
<path d="M20.2025 25.953L20.1744 25.9265C21.779 26.0872 23.3715 25.5234 24.5124 24.3909C25.6532 23.2584 26.2219 21.6767 26.0614 20.0824L26.0895 20.1089C25.9302 18.2341 26.611 16.3848 27.9501 15.0544C29.2893 13.724 31.1508 13.0477 33.0379 13.206L33.0098 13.1795C35.2949 13.3927 37.4692 12.1593 38.4458 10.0958C39.4224 8.03236 38.9916 5.58206 37.3687 3.96974C35.7457 2.35741 33.2793 1.92938 31.2022 2.8996C29.1252 3.86982 27.8837 6.02989 28.0983 8.30007L28.0716 8.27213C28.2315 10.1471 27.5509 11.9967 26.2116 13.3272C24.8723 14.6578 23.0105 15.3339 21.1232 15.1751L21.1499 15.203C19.5452 15.0424 17.9527 15.6061 16.8118 16.7387C15.671 17.8712 15.1023 19.4528 15.2628 21.0471L15.2362 21.0207C15.395 22.8954 14.7141 24.7443 13.375 26.0746C12.0359 27.4049 10.1748 28.0813 8.28778 27.9236L8.31442 27.9501C6.02929 27.7369 3.855 28.9703 2.87839 31.0337C1.90178 33.0972 2.33263 35.5475 3.95557 37.1598C5.57852 38.7721 8.04495 39.2002 10.122 38.23C12.199 37.2597 13.4406 35.0997 13.226 32.8295L13.2541 32.856C13.0948 30.9811 13.7755 29.1319 15.1147 27.8014C16.4539 26.471 18.3153 25.7948 20.2025 25.953V25.953Z" stroke="black"/>
<path d="M20.2025 25.953L20.1744 25.9265C21.779 26.0872 23.3715 25.5234 24.5124 24.3909C25.6532 23.2584 26.2219 21.6767 26.0614 20.0824L26.0895 20.1089C25.9302 18.2341 26.611 16.3848 27.9501 15.0544C29.2893 13.724 31.1508 13.0477 33.0379 13.206L33.0098 13.1795C35.2949 13.3927 37.4692 12.1593 38.4458 10.0958C39.4224 8.03236 38.9916 5.58206 37.3687 3.96974C35.7457 2.35741 33.2793 1.92938 31.2022 2.8996C29.1252 3.86982 27.8837 6.02989 28.0983 8.30007L28.0716 8.27213C28.2315 10.1471 27.5509 11.9967 26.2116 13.3272C24.8723 14.6578 23.0105 15.3339 21.1232 15.1751L21.1499 15.203C19.5452 15.0424 17.9527 15.6061 16.8118 16.7387C15.671 17.8712 15.1023 19.4528 15.2628 21.0471L15.2362 21.0207C15.395 22.8954 14.7141 24.7443 13.375 26.0746C12.0359 27.4049 10.1748 28.0813 8.28778 27.9236L8.31442 27.9501C6.02929 27.7369 3.855 28.9703 2.87839 31.0337C1.90178 33.0972 2.33263 35.5475 3.95557 37.1598C5.57852 38.7721 8.04495 39.2002 10.122 38.23C12.199 37.2597 13.4406 35.0997 13.226 32.8295L13.2541 32.856C13.0948 30.9811 13.7755 29.1319 15.1147 27.8014C16.4539 26.471 18.3153 25.7948 20.2025 25.953V25.953Z" stroke="black" stroke-opacity="0.2"/>
<path d="M20.2025 25.953L20.1744 25.9265C21.779 26.0872 23.3715 25.5234 24.5124 24.3909C25.6532 23.2584 26.2219 21.6767 26.0614 20.0824L26.0895 20.1089C25.9302 18.2341 26.611 16.3848 27.9501 15.0544C29.2893 13.724 31.1508 13.0477 33.0379 13.206L33.0098 13.1795C35.2949 13.3927 37.4692 12.1593 38.4458 10.0958C39.4224 8.03236 38.9916 5.58206 37.3687 3.96974C35.7457 2.35741 33.2793 1.92938 31.2022 2.8996C29.1252 3.86982 27.8837 6.02989 28.0983 8.30007L28.0716 8.27213C28.2315 10.1471 27.5509 11.9967 26.2116 13.3272C24.8723 14.6578 23.0105 15.3339 21.1232 15.1751L21.1499 15.203C19.5452 15.0424 17.9527 15.6061 16.8118 16.7387C15.671 17.8712 15.1023 19.4528 15.2628 21.0471L15.2362 21.0207C15.395 22.8954 14.7141 24.7443 13.375 26.0746C12.0359 27.4049 10.1748 28.0813 8.28778 27.9236L8.31442 27.9501C6.02929 27.7369 3.855 28.9703 2.87839 31.0337C1.90178 33.0972 2.33263 35.5475 3.95557 37.1598C5.57852 38.7721 8.04495 39.2002 10.122 38.23C12.199 37.2597 13.4406 35.0997 13.226 32.8295L13.2541 32.856C13.0948 30.9811 13.7755 29.1319 15.1147 27.8014C16.4539 26.471 18.3153 25.7948 20.2025 25.953V25.953Z" stroke="black" stroke-opacity="0.2"/>
<path d="M10.2817 23.0016C11.4177 21.8665 11.9848 20.2873 11.8286 18.6942L11.8567 18.7207C11.6973 16.8453 12.3784 14.9955 13.7183 13.665C15.0581 12.3344 16.9204 11.6586 18.8081 11.8178L18.78 11.7913C21.0643 12.0039 23.2375 10.7706 24.2135 8.7078C25.1896 6.64499 24.7587 4.19566 23.1364 2.58393C21.5141 0.972201 19.0486 0.544196 16.9722 1.51382C14.8958 2.48345 13.6544 4.64248 13.8684 6.91187L13.8418 6.8854C14.0011 8.76024 13.3203 10.6095 11.9812 11.9399C10.642 13.2703 8.78054 13.9466 6.89336 13.7883L6.92001 13.8148C4.40888 13.5911 2.07266 15.1127 1.27773 17.4896C0.482803 19.8666 1.43797 22.4746 3.58459 23.7882C5.73121 25.1019 8.50542 24.7762 10.2847 23.0016H10.2817Z" fill="#5454D4"/>
<path d="M10.2817 23.0016C11.4177 21.8665 11.9848 20.2873 11.8286 18.6942L11.8567 18.7207C11.6973 16.8453 12.3784 14.9955 13.7183 13.665C15.0581 12.3344 16.9204 11.6586 18.8081 11.8178L18.78 11.7913C21.0643 12.0039 23.2375 10.7706 24.2135 8.7078C25.1896 6.64499 24.7587 4.19566 23.1364 2.58393C21.5141 0.972201 19.0486 0.544196 16.9722 1.51382C14.8958 2.48345 13.6544 4.64248 13.8684 6.91187L13.8418 6.8854C14.0011 8.76024 13.3203 10.6095 11.9812 11.9399C10.642 13.2703 8.78054 13.9466 6.89336 13.7883L6.92001 13.8148C4.40888 13.5911 2.07266 15.1127 1.27773 17.4896C0.482803 19.8666 1.43797 22.4746 3.58459 23.7882C5.73121 25.1019 8.50542 24.7762 10.2847 23.0016H10.2817Z" stroke="black"/>
<path d="M10.2817 23.0016C11.4177 21.8665 11.9848 20.2873 11.8286 18.6942L11.8567 18.7207C11.6973 16.8453 12.3784 14.9955 13.7183 13.665C15.0581 12.3344 16.9204 11.6586 18.8081 11.8178L18.78 11.7913C21.0643 12.0039 23.2375 10.7706 24.2135 8.7078C25.1896 6.64499 24.7587 4.19566 23.1364 2.58393C21.5141 0.972201 19.0486 0.544196 16.9722 1.51382C14.8958 2.48345 13.6544 4.64248 13.8684 6.91187L13.8418 6.8854C14.0011 8.76024 13.3203 10.6095 11.9812 11.9399C10.642 13.2703 8.78054 13.9466 6.89336 13.7883L6.92001 13.8148C4.40888 13.5911 2.07266 15.1127 1.27773 17.4896C0.482803 19.8666 1.43797 22.4746 3.58459 23.7882C5.73121 25.1019 8.50542 24.7762 10.2847 23.0016H10.2817Z" stroke="black" stroke-opacity="0.2"/>
<path d="M10.2817 23.0016C11.4177 21.8665 11.9848 20.2873 11.8286 18.6942L11.8567 18.7207C11.6973 16.8453 12.3784 14.9955 13.7183 13.665C15.0581 12.3344 16.9204 11.6586 18.8081 11.8178L18.78 11.7913C21.0643 12.0039 23.2375 10.7706 24.2135 8.7078C25.1896 6.64499 24.7587 4.19566 23.1364 2.58393C21.5141 0.972201 19.0486 0.544196 16.9722 1.51382C14.8958 2.48345 13.6544 4.64248 13.8684 6.91187L13.8418 6.8854C14.0011 8.76024 13.3203 10.6095 11.9812 11.9399C10.642 13.2703 8.78054 13.9466 6.89336 13.7883L6.92001 13.8148C4.40888 13.5911 2.07266 15.1127 1.27773 17.4896C0.482803 19.8666 1.43797 22.4746 3.58459 23.7882C5.73121 25.1019 8.50542 24.7762 10.2847 23.0016H10.2817Z" stroke="black" stroke-opacity="0.2"/>
<path d="M56.1361 8.33398H60.5325V29.5884H56.1361V8.33398Z" fill="#19191B"/>
<path d="M56.1361 8.33398H60.5325V29.5884H56.1361V8.33398Z" stroke="black"/>
<path d="M56.1361 8.33398H60.5325V29.5884H56.1361V8.33398Z" stroke="black" stroke-opacity="0.2"/>
<path d="M56.1361 8.33398H60.5325V29.5884H56.1361V8.33398Z" stroke="black" stroke-opacity="0.2"/>
<path fill-rule="evenodd" clip-rule="evenodd" d="M67.7954 15.1596C64.8941 16.3636 63.0098 19.1867 63.0223 22.3104C63.0071 24.3586 63.8215 26.3269 65.2823 27.7724C66.7432 29.2178 68.7277 30.019 70.7893 29.9957C73.9336 29.9957 76.7677 28.1123 77.968 25.2252C79.1683 22.3381 78.4981 19.0168 76.2703 16.8124C74.0425 14.6081 70.6967 13.9555 67.7954 15.1596ZM70.7269 19.0536C72.5768 19.0196 74.1087 20.4729 74.1599 22.3103C74.2098 23.2212 73.874 24.1114 73.2338 24.7653C72.5936 25.4192 71.7072 25.7773 70.7893 25.753C68.9391 25.7531 67.4343 24.2721 67.4172 22.434C67.4001 20.596 68.877 19.0875 70.7269 19.0536Z" fill="#19191B"/>
<path d="M63.0223 22.3104L63.5224 22.3141L63.5223 22.3084L63.0223 22.3104ZM67.7954 15.1596L67.9871 15.6214L67.7954 15.1596ZM70.7893 29.9957L70.7893 29.4957L70.7837 29.4957L70.7893 29.9957ZM76.2703 16.8124L75.9186 17.1678L75.9186 17.1678L76.2703 16.8124ZM74.1599 22.3103L73.6599 22.3243L73.6606 22.3377L74.1599 22.3103ZM70.7269 19.0536L70.736 19.5535L70.7269 19.0536ZM73.2338 24.7653L73.5911 25.1151L73.5911 25.1151L73.2338 24.7653ZM70.7893 25.753L70.8026 25.253L70.7893 25.253L70.7893 25.753ZM67.4172 22.434L66.9172 22.4387L66.9172 22.4387L67.4172 22.434ZM63.5223 22.3084C63.5106 19.389 65.2717 16.7483 67.9871 15.6214L67.6038 14.6978C64.5165 15.979 62.5089 18.9844 62.5223 22.3124L63.5223 22.3084ZM65.634 27.417C64.2687 26.066 63.5081 24.227 63.5223 22.3141L62.5223 22.3067C62.5061 24.4902 63.3744 26.5879 64.9307 28.1278L65.634 27.417ZM70.7837 29.4957C68.8552 29.5176 66.9995 28.7681 65.634 27.417L64.9307 28.1278C66.4868 29.6676 68.6002 30.5205 70.795 30.4957L70.7837 29.4957ZM77.5063 25.0332C76.3841 27.7325 73.7331 29.4957 70.7893 29.4957L70.7893 30.4957C74.1341 30.4957 77.1512 28.4922 78.4297 25.4171L77.5063 25.0332ZM75.9186 17.1678C78.0023 19.2296 78.6283 22.3345 77.5063 25.0332L78.4297 25.4171C79.7084 22.3416 78.994 18.804 76.622 16.457L75.9186 17.1678ZM67.9871 15.6214C70.7029 14.4943 73.8344 15.1056 75.9186 17.1678L76.622 16.457C74.2506 14.1106 70.6905 13.4168 67.6038 14.6978L67.9871 15.6214ZM74.6597 22.2964C74.6008 20.1818 72.8388 18.5147 70.7177 18.5536L70.736 19.5535C72.3148 19.5245 73.6166 20.7641 73.6601 22.3243L74.6597 22.2964ZM73.5911 25.1151C74.3291 24.3613 74.7168 23.3344 74.6591 22.283L73.6606 22.3377C73.7029 23.108 73.419 23.8614 72.8765 24.4155L73.5911 25.1151ZM70.776 26.2528C71.8324 26.2808 72.8532 25.8687 73.5911 25.1151L72.8765 24.4155C72.3339 24.9697 71.582 25.2738 70.8026 25.2532L70.776 26.2528ZM66.9172 22.4387C66.9369 24.5541 68.6678 26.2531 70.7893 26.253L70.7893 25.253C69.2103 25.2531 67.9317 23.99 67.9172 22.4293L66.9172 22.4387ZM70.7177 18.5536C68.5965 18.5925 66.8975 20.3232 66.9172 22.4387L67.9172 22.4293C67.9026 20.8687 69.1574 19.5824 70.736 19.5535L70.7177 18.5536Z" fill="black"/>
<path d="M63.0223 22.3104L63.5224 22.3141L63.5223 22.3084L63.0223 22.3104ZM67.7954 15.1596L67.9871 15.6214L67.7954 15.1596ZM70.7893 29.9957L70.7893 29.4957L70.7837 29.4957L70.7893 29.9957ZM76.2703 16.8124L75.9186 17.1678L75.9186 17.1678L76.2703 16.8124ZM74.1599 22.3103L73.6599 22.3243L73.6606 22.3377L74.1599 22.3103ZM70.7269 19.0536L70.736 19.5535L70.7269 19.0536ZM73.2338 24.7653L73.5911 25.1151L73.5911 25.1151L73.2338 24.7653ZM70.7893 25.753L70.8026 25.253L70.7893 25.253L70.7893 25.753ZM67.4172 22.434L66.9172 22.4387L66.9172 22.4387L67.4172 22.434ZM63.5223 22.3084C63.5106 19.389 65.2717 16.7483 67.9871 15.6214L67.6038 14.6978C64.5165 15.979 62.5089 18.9844 62.5223 22.3124L63.5223 22.3084ZM65.634 27.417C64.2687 26.066 63.5081 24.227 63.5223 22.3141L62.5223 22.3067C62.5061 24.4902 63.3744 26.5879 64.9307 28.1278L65.634 27.417ZM70.7837 29.4957C68.8552 29.5176 66.9995 28.7681 65.634 27.417L64.9307 28.1278C66.4868 29.6676 68.6002 30.5205 70.795 30.4957L70.7837 29.4957ZM77.5063 25.0332C76.3841 27.7325 73.7331 29.4957 70.7893 29.4957L70.7893 30.4957C74.1341 30.4957 77.1512 28.4922 78.4297 25.4171L77.5063 25.0332ZM75.9186 17.1678C78.0023 19.2296 78.6283 22.3345 77.5063 25.0332L78.4297 25.4171C79.7084 22.3416 78.994 18.804 76.622 16.457L75.9186 17.1678ZM67.9871 15.6214C70.7029 14.4943 73.8344 15.1056 75.9186 17.1678L76.622 16.457C74.2506 14.1106 70.6905 13.4168 67.6038 14.6978L67.9871 15.6214ZM74.6597 22.2964C74.6008 20.1818 72.8388 18.5147 70.7177 18.5536L70.736 19.5535C72.3148 19.5245 73.6166 20.7641 73.6601 22.3243L74.6597 22.2964ZM73.5911 25.1151C74.3291 24.3613 74.7168 23.3344 74.6591 22.283L73.6606 22.3377C73.7029 23.108 73.419 23.8614 72.8765 24.4155L73.5911 25.1151ZM70.776 26.2528C71.8324 26.2808 72.8532 25.8687 73.5911 25.1151L72.8765 24.4155C72.3339 24.9697 71.582 25.2738 70.8026 25.2532L70.776 26.2528ZM66.9172 22.4387C66.9369 24.5541 68.6678 26.2531 70.7893 26.253L70.7893 25.253C69.2103 25.2531 67.9317 23.99 67.9172 22.4293L66.9172 22.4387ZM70.7177 18.5536C68.5965 18.5925 66.8975 20.3232 66.9172 22.4387L67.9172 22.4293C67.9026 20.8687 69.1574 19.5824 70.736 19.5535L70.7177 18.5536Z" fill="black" fill-opacity="0.2"/>
<path d="M63.0223 22.3104L63.5224 22.3141L63.5223 22.3084L63.0223 22.3104ZM67.7954 15.1596L67.9871 15.6214L67.7954 15.1596ZM70.7893 29.9957L70.7893 29.4957L70.7837 29.4957L70.7893 29.9957ZM76.2703 16.8124L75.9186 17.1678L75.9186 17.1678L76.2703 16.8124ZM74.1599 22.3103L73.6599 22.3243L73.6606 22.3377L74.1599 22.3103ZM70.7269 19.0536L70.736 19.5535L70.7269 19.0536ZM73.2338 24.7653L73.5911 25.1151L73.5911 25.1151L73.2338 24.7653ZM70.7893 25.753L70.8026 25.253L70.7893 25.253L70.7893 25.753ZM67.4172 22.434L66.9172 22.4387L66.9172 22.4387L67.4172 22.434ZM63.5223 22.3084C63.5106 19.389 65.2717 16.7483 67.9871 15.6214L67.6038 14.6978C64.5165 15.979 62.5089 18.9844 62.5223 22.3124L63.5223 22.3084ZM65.634 27.417C64.2687 26.066 63.5081 24.227 63.5223 22.3141L62.5223 22.3067C62.5061 24.4902 63.3744 26.5879 64.9307 28.1278L65.634 27.417ZM70.7837 29.4957C68.8552 29.5176 66.9995 28.7681 65.634 27.417L64.9307 28.1278C66.4868 29.6676 68.6002 30.5205 70.795 30.4957L70.7837 29.4957ZM77.5063 25.0332C76.3841 27.7325 73.7331 29.4957 70.7893 29.4957L70.7893 30.4957C74.1341 30.4957 77.1512 28.4922 78.4297 25.4171L77.5063 25.0332ZM75.9186 17.1678C78.0023 19.2296 78.6283 22.3345 77.5063 25.0332L78.4297 25.4171C79.7084 22.3416 78.994 18.804 76.622 16.457L75.9186 17.1678ZM67.9871 15.6214C70.7029 14.4943 73.8344 15.1056 75.9186 17.1678L76.622 16.457C74.2506 14.1106 70.6905 13.4168 67.6038 14.6978L67.9871 15.6214ZM74.6597 22.2964C74.6008 20.1818 72.8388 18.5147 70.7177 18.5536L70.736 19.5535C72.3148 19.5245 73.6166 20.7641 73.6601 22.3243L74.6597 22.2964ZM73.5911 25.1151C74.3291 24.3613 74.7168 23.3344 74.6591 22.283L73.6606 22.3377C73.7029 23.108 73.419 23.8614 72.8765 24.4155L73.5911 25.1151ZM70.776 26.2528C71.8324 26.2808 72.8532 25.8687 73.5911 25.1151L72.8765 24.4155C72.3339 24.9697 71.582 25.2738 70.8026 25.2532L70.776 26.2528ZM66.9172 22.4387C66.9369 24.5541 68.6678 26.2531 70.7893 26.253L70.7893 25.253C69.2103 25.2531 67.9317 23.99 67.9172 22.4293L66.9172 22.4387ZM70.7177 18.5536C68.5965 18.5925 66.8975 20.3232 66.9172 22.4387L67.9172 22.4293C67.9026 20.8687 69.1574 19.5824 70.736 19.5535L70.7177 18.5536Z" fill="black" fill-opacity="0.2"/>
<path fill-rule="evenodd" clip-rule="evenodd" d="M96.0783 28.8545V15.031L91.7988 15.0281V16.5133C90.7549 15.2443 89.1672 14.5421 87.5194 14.6207C83.4997 14.7466 80.3069 18.0203 80.3069 22.0156C80.3069 26.0109 83.4997 29.2845 87.5194 29.4104C89.1672 29.489 90.7549 28.7868 91.7988 27.5178V28.8486C91.8724 29.7267 91.5403 30.5905 90.8963 31.1963C90.2522 31.8021 89.366 32.0843 88.4875 31.9633C87.0978 32.1043 85.7661 31.3733 85.1465 30.1295L81.3955 32.2839C82.863 34.6593 85.5432 36.0214 88.3409 35.8133C92.2385 35.8133 96.0783 33.7457 96.0783 28.8545ZM89.7112 18.6533C91.0338 19.2458 91.8608 20.5777 91.8003 22.0177C91.8277 22.9476 91.458 23.8456 90.7826 24.4899C90.1073 25.1342 89.1892 25.4649 88.2551 25.4001C86.8043 25.4018 85.4982 24.527 84.9557 23.1903C84.4133 21.8535 84.7436 20.3234 85.79 19.325C86.8364 18.3267 88.3887 18.0608 89.7112 18.6533Z" fill="#19191B"/>
<path d="M96.0783 15.031H96.5783V14.5313L96.0786 14.531L96.0783 15.031ZM91.7988 15.0281L91.7992 14.5281L91.2988 14.5277V15.0281H91.7988ZM91.7988 16.5133L91.4127 16.831L92.2988 17.9082V16.5133H91.7988ZM87.5194 14.6207L87.535 15.1205L87.5432 15.1201L87.5194 14.6207ZM87.5194 29.4104L87.5432 28.9109L87.535 28.9107L87.5194 29.4104ZM91.7988 27.5178H92.2988V26.1229L91.4127 27.2001L91.7988 27.5178ZM91.7988 28.8486H91.2988V28.8696L91.3006 28.8904L91.7988 28.8486ZM90.8963 31.1963L90.5537 30.8321L90.5537 30.8321L90.8963 31.1963ZM88.4875 31.9633L88.5556 31.468L88.4965 31.4599L88.437 31.4659L88.4875 31.9633ZM85.1465 30.1295L85.594 29.9066L85.3575 29.4317L84.8975 29.696L85.1465 30.1295ZM81.3955 32.2839L81.1464 31.8504L80.6987 32.1075L80.9701 32.5467L81.3955 32.2839ZM88.3409 35.8133V35.3133H88.3223L88.3038 35.3147L88.3409 35.8133ZM91.8003 22.0177L91.3008 21.9968L91.3 22.0146L91.3005 22.0324L91.8003 22.0177ZM89.7112 18.6533L89.9157 18.197L89.9157 18.197L89.7112 18.6533ZM88.2551 25.4001L88.2897 24.9013L88.2721 24.9001L88.2545 24.9001L88.2551 25.4001ZM85.79 19.325L85.4448 18.9633L85.79 19.325ZM95.5783 15.031V28.8545H96.5783V15.031H95.5783ZM91.7985 15.5281L96.0779 15.531L96.0786 14.531L91.7992 14.5281L91.7985 15.5281ZM92.2988 16.5133V15.0281H91.2988V16.5133H92.2988ZM87.5432 15.1201C89.034 15.0491 90.4695 15.6845 91.4127 16.831L92.185 16.1957C91.0403 14.8042 89.3003 14.0352 87.4955 14.1213L87.5432 15.1201ZM80.8069 22.0156C80.8069 18.2932 83.7824 15.238 87.535 15.1205L87.5037 14.1209C83.2171 14.2552 79.8069 17.7473 79.8069 22.0156H80.8069ZM87.535 28.9107C83.7824 28.7931 80.8069 25.7379 80.8069 22.0156H79.8069C79.8069 26.2838 83.2171 29.7759 87.5037 29.9102L87.535 28.9107ZM91.4127 27.2001C90.4695 28.3467 89.034 28.9821 87.5432 28.911L87.4955 29.9098C89.3003 29.9959 91.0403 29.2269 92.185 27.8354L91.4127 27.2001ZM92.2988 28.8486V27.5178H91.2988V28.8486H92.2988ZM91.2389 31.5605C91.9936 30.8506 92.3834 29.8376 92.2971 28.8069L91.3006 28.8904C91.3614 29.6159 91.0871 30.3303 90.5537 30.8321L91.2389 31.5605ZM88.4193 32.4587C89.447 32.6002 90.4844 32.2702 91.2389 31.5605L90.5537 30.8321C90.0201 31.334 89.285 31.5684 88.5556 31.468L88.4193 32.4587ZM84.6989 30.3525C85.4119 31.7837 86.9427 32.6225 88.5379 32.4608L88.437 31.4659C87.2528 31.586 86.1202 30.9629 85.594 29.9066L84.6989 30.3525ZM81.6445 32.7175L85.3955 30.5631L84.8975 29.696L81.1464 31.8504L81.6445 32.7175ZM88.3038 35.3147C85.6911 35.509 83.1897 34.2369 81.8208 32.0211L80.9701 32.5467C82.5363 35.0818 85.3954 36.5337 88.378 36.312L88.3038 35.3147ZM95.5783 28.8545C95.5783 31.1527 94.6842 32.7443 93.3637 33.7738C92.0263 34.8166 90.2096 35.3133 88.3409 35.3133V36.3133C90.3698 36.3133 92.4218 35.7763 93.9786 34.5624C95.5524 33.3354 96.5783 31.4475 96.5783 28.8545H95.5783ZM92.2999 22.0387C92.369 20.3927 91.4236 18.8726 89.9157 18.197L89.5068 19.1096C90.6439 19.619 91.3526 20.7627 91.3008 21.9968L92.2999 22.0387ZM91.1278 24.8517C91.9054 24.1098 92.3316 23.0752 92.3001 22.003L91.3005 22.0324C91.3237 22.82 91.0107 23.5813 90.4375 24.1281L91.1278 24.8517ZM88.2205 25.8989C89.2943 25.9733 90.3504 25.5934 91.1278 24.8517L90.4375 24.1281C89.8642 24.6751 89.084 24.9564 88.2897 24.9013L88.2205 25.8989ZM84.4924 23.3783C85.1121 24.9053 86.6026 25.9021 88.2557 25.9001L88.2545 24.9001C87.0059 24.9016 85.8843 24.1488 85.4191 23.0023L84.4924 23.3783ZM85.4448 18.9633C84.2505 20.1028 83.8726 21.8507 84.4924 23.3783L85.4191 23.0023C84.954 21.8563 85.2367 20.544 86.1351 19.6868L85.4448 18.9633ZM89.9157 18.197C88.4082 17.5217 86.6386 17.8243 85.4448 18.9633L86.1351 19.6868C87.0342 18.8291 88.3691 18.5999 89.5068 19.1096L89.9157 18.197Z" fill="black"/>
<path d="M96.0783 15.031H96.5783V14.5313L96.0786 14.531L96.0783 15.031ZM91.7988 15.0281L91.7992 14.5281L91.2988 14.5277V15.0281H91.7988ZM91.7988 16.5133L91.4127 16.831L92.2988 17.9082V16.5133H91.7988ZM87.5194 14.6207L87.535 15.1205L87.5432 15.1201L87.5194 14.6207ZM87.5194 29.4104L87.5432 28.9109L87.535 28.9107L87.5194 29.4104ZM91.7988 27.5178H92.2988V26.1229L91.4127 27.2001L91.7988 27.5178ZM91.7988 28.8486H91.2988V28.8696L91.3006 28.8904L91.7988 28.8486ZM90.8963 31.1963L90.5537 30.8321L90.5537 30.8321L90.8963 31.1963ZM88.4875 31.9633L88.5556 31.468L88.4965 31.4599L88.437 31.4659L88.4875 31.9633ZM85.1465 30.1295L85.594 29.9066L85.3575 29.4317L84.8975 29.696L85.1465 30.1295ZM81.3955 32.2839L81.1464 31.8504L80.6987 32.1075L80.9701 32.5467L81.3955 32.2839ZM88.3409 35.8133V35.3133H88.3223L88.3038 35.3147L88.3409 35.8133ZM91.8003 22.0177L91.3008 21.9968L91.3 22.0146L91.3005 22.0324L91.8003 22.0177ZM89.7112 18.6533L89.9157 18.197L89.9157 18.197L89.7112 18.6533ZM88.2551 25.4001L88.2897 24.9013L88.2721 24.9001L88.2545 24.9001L88.2551 25.4001ZM85.79 19.325L85.4448 18.9633L85.79 19.325ZM95.5783 15.031V28.8545H96.5783V15.031H95.5783ZM91.7985 15.5281L96.0779 15.531L96.0786 14.531L91.7992 14.5281L91.7985 15.5281ZM92.2988 16.5133V15.0281H91.2988V16.5133H92.2988ZM87.5432 15.1201C89.034 15.0491 90.4695 15.6845 91.4127 16.831L92.185 16.1957C91.0403 14.8042 89.3003 14.0352 87.4955 14.1213L87.5432 15.1201ZM80.8069 22.0156C80.8069 18.2932 83.7824 15.238 87.535 15.1205L87.5037 14.1209C83.2171 14.2552 79.8069 17.7473 79.8069 22.0156H80.8069ZM87.535 28.9107C83.7824 28.7931 80.8069 25.7379 80.8069 22.0156H79.8069C79.8069 26.2838 83.2171 29.7759 87.5037 29.9102L87.535 28.9107ZM91.4127 27.2001C90.4695 28.3467 89.034 28.9821 87.5432 28.911L87.4955 29.9098C89.3003 29.9959 91.0403 29.2269 92.185 27.8354L91.4127 27.2001ZM92.2988 28.8486V27.5178H91.2988V28.8486H92.2988ZM91.2389 31.5605C91.9936 30.8506 92.3834 29.8376 92.2971 28.8069L91.3006 28.8904C91.3614 29.6159 91.0871 30.3303 90.5537 30.8321L91.2389 31.5605ZM88.4193 32.4587C89.447 32.6002 90.4844 32.2702 91.2389 31.5605L90.5537 30.8321C90.0201 31.334 89.285 31.5684 88.5556 31.468L88.4193 32.4587ZM84.6989 30.3525C85.4119 31.7837 86.9427 32.6225 88.5379 32.4608L88.437 31.4659C87.2528 31.586 86.1202 30.9629 85.594 29.9066L84.6989 30.3525ZM81.6445 32.7175L85.3955 30.5631L84.8975 29.696L81.1464 31.8504L81.6445 32.7175ZM88.3038 35.3147C85.6911 35.509 83.1897 34.2369 81.8208 32.0211L80.9701 32.5467C82.5363 35.0818 85.3954 36.5337 88.378 36.312L88.3038 35.3147ZM95.5783 28.8545C95.5783 31.1527 94.6842 32.7443 93.3637 33.7738C92.0263 34.8166 90.2096 35.3133 88.3409 35.3133V36.3133C90.3698 36.3133 92.4218 35.7763 93.9786 34.5624C95.5524 33.3354 96.5783 31.4475 96.5783 28.8545H95.5783ZM92.2999 22.0387C92.369 20.3927 91.4236 18.8726 89.9157 18.197L89.5068 19.1096C90.6439 19.619 91.3526 20.7627 91.3008 21.9968L92.2999 22.0387ZM91.1278 24.8517C91.9054 24.1098 92.3316 23.0752 92.3001 22.003L91.3005 22.0324C91.3237 22.82 91.0107 23.5813 90.4375 24.1281L91.1278 24.8517ZM88.2205 25.8989C89.2943 25.9733 90.3504 25.5934 91.1278 24.8517L90.4375 24.1281C89.8642 24.6751 89.084 24.9564 88.2897 24.9013L88.2205 25.8989ZM84.4924 23.3783C85.1121 24.9053 86.6026 25.9021 88.2557 25.9001L88.2545 24.9001C87.0059 24.9016 85.8843 24.1488 85.4191 23.0023L84.4924 23.3783ZM85.4448 18.9633C84.2505 20.1028 83.8726 21.8507 84.4924 23.3783L85.4191 23.0023C84.954 21.8563 85.2367 20.544 86.1351 19.6868L85.4448 18.9633ZM89.9157 18.197C88.4082 17.5217 86.6386 17.8243 85.4448 18.9633L86.1351 19.6868C87.0342 18.8291 88.3691 18.5999 89.5068 19.1096L89.9157 18.197Z" fill="black" fill-opacity="0.2"/>
<path d="M96.0783 15.031H96.5783V14.5313L96.0786 14.531L96.0783 15.031ZM91.7988 15.0281L91.7992 14.5281L91.2988 14.5277V15.0281H91.7988ZM91.7988 16.5133L91.4127 16.831L92.2988 17.9082V16.5133H91.7988ZM87.5194 14.6207L87.535 15.1205L87.5432 15.1201L87.5194 14.6207ZM87.5194 29.4104L87.5432 28.9109L87.535 28.9107L87.5194 29.4104ZM91.7988 27.5178H92.2988V26.1229L91.4127 27.2001L91.7988 27.5178ZM91.7988 28.8486H91.2988V28.8696L91.3006 28.8904L91.7988 28.8486ZM90.8963 31.1963L90.5537 30.8321L90.5537 30.8321L90.8963 31.1963ZM88.4875 31.9633L88.5556 31.468L88.4965 31.4599L88.437 31.4659L88.4875 31.9633ZM85.1465 30.1295L85.594 29.9066L85.3575 29.4317L84.8975 29.696L85.1465 30.1295ZM81.3955 32.2839L81.1464 31.8504L80.6987 32.1075L80.9701 32.5467L81.3955 32.2839ZM88.3409 35.8133V35.3133H88.3223L88.3038 35.3147L88.3409 35.8133ZM91.8003 22.0177L91.3008 21.9968L91.3 22.0146L91.3005 22.0324L91.8003 22.0177ZM89.7112 18.6533L89.9157 18.197L89.9157 18.197L89.7112 18.6533ZM88.2551 25.4001L88.2897 24.9013L88.2721 24.9001L88.2545 24.9001L88.2551 25.4001ZM85.79 19.325L85.4448 18.9633L85.79 19.325ZM95.5783 15.031V28.8545H96.5783V15.031H95.5783ZM91.7985 15.5281L96.0779 15.531L96.0786 14.531L91.7992 14.5281L91.7985 15.5281ZM92.2988 16.5133V15.0281H91.2988V16.5133H92.2988ZM87.5432 15.1201C89.034 15.0491 90.4695 15.6845 91.4127 16.831L92.185 16.1957C91.0403 14.8042 89.3003 14.0352 87.4955 14.1213L87.5432 15.1201ZM80.8069 22.0156C80.8069 18.2932 83.7824 15.238 87.535 15.1205L87.5037 14.1209C83.2171 14.2552 79.8069 17.7473 79.8069 22.0156H80.8069ZM87.535 28.9107C83.7824 28.7931 80.8069 25.7379 80.8069 22.0156H79.8069C79.8069 26.2838 83.2171 29.7759 87.5037 29.9102L87.535 28.9107ZM91.4127 27.2001C90.4695 28.3467 89.034 28.9821 87.5432 28.911L87.4955 29.9098C89.3003 29.9959 91.0403 29.2269 92.185 27.8354L91.4127 27.2001ZM92.2988 28.8486V27.5178H91.2988V28.8486H92.2988ZM91.2389 31.5605C91.9936 30.8506 92.3834 29.8376 92.2971 28.8069L91.3006 28.8904C91.3614 29.6159 91.0871 30.3303 90.5537 30.8321L91.2389 31.5605ZM88.4193 32.4587C89.447 32.6002 90.4844 32.2702 91.2389 31.5605L90.5537 30.8321C90.0201 31.334 89.285 31.5684 88.5556 31.468L88.4193 32.4587ZM84.6989 30.3525C85.4119 31.7837 86.9427 32.6225 88.5379 32.4608L88.437 31.4659C87.2528 31.586 86.1202 30.9629 85.594 29.9066L84.6989 30.3525ZM81.6445 32.7175L85.3955 30.5631L84.8975 29.696L81.1464 31.8504L81.6445 32.7175ZM88.3038 35.3147C85.6911 35.509 83.1897 34.2369 81.8208 32.0211L80.9701 32.5467C82.5363 35.0818 85.3954 36.5337 88.378 36.312L88.3038 35.3147ZM95.5783 28.8545C95.5783 31.1527 94.6842 32.7443 93.3637 33.7738C92.0263 34.8166 90.2096 35.3133 88.3409 35.3133V36.3133C90.3698 36.3133 92.4218 35.7763 93.9786 34.5624C95.5524 33.3354 96.5783 31.4475 96.5783 28.8545H95.5783ZM92.2999 22.0387C92.369 20.3927 91.4236 18.8726 89.9157 18.197L89.5068 19.1096C90.6439 19.619 91.3526 20.7627 91.3008 21.9968L92.2999 22.0387ZM91.1278 24.8517C91.9054 24.1098 92.3316 23.0752 92.3001 22.003L91.3005 22.0324C91.3237 22.82 91.0107 23.5813 90.4375 24.1281L91.1278 24.8517ZM88.2205 25.8989C89.2943 25.9733 90.3504 25.5934 91.1278 24.8517L90.4375 24.1281C89.8642 24.6751 89.084 24.9564 88.2897 24.9013L88.2205 25.8989ZM84.4924 23.3783C85.1121 24.9053 86.6026 25.9021 88.2557 25.9001L88.2545 24.9001C87.0059 24.9016 85.8843 24.1488 85.4191 23.0023L84.4924 23.3783ZM85.4448 18.9633C84.2505 20.1028 83.8726 21.8507 84.4924 23.3783L85.4191 23.0023C84.954 21.8563 85.2367 20.544 86.1351 19.6868L85.4448 18.9633ZM89.9157 18.197C88.4082 17.5217 86.6386 17.8243 85.4448 18.9633L86.1351 19.6868C87.0342 18.8291 88.3691 18.5999 89.5068 19.1096L89.9157 18.197Z" fill="black" fill-opacity="0.2"/>
<path fill-rule="evenodd" clip-rule="evenodd" d="M103.341 15.1596C100.44 16.3636 98.5555 19.1867 98.5681 22.3104C98.5529 24.3586 99.3673 26.3269 100.828 27.7724C102.289 29.2178 104.273 30.019 106.335 29.9957C109.479 29.9957 112.313 28.1123 113.514 25.2252C114.714 22.3381 114.044 19.0168 111.816 16.8124C109.588 14.6081 106.243 13.9555 103.341 15.1596ZM106.273 19.0536C108.123 19.0196 109.654 20.4729 109.706 22.3103C109.756 23.2212 109.42 24.1114 108.78 24.7653C108.139 25.4192 107.253 25.7773 106.335 25.753C104.485 25.7531 102.98 24.2721 102.963 22.434C102.946 20.596 104.423 19.0875 106.273 19.0536Z" fill="#19191B"/>
<path d="M98.5681 22.3104L99.0681 22.3141L99.0681 22.3084L98.5681 22.3104ZM103.341 15.1596L103.533 15.6214L103.341 15.1596ZM106.335 29.9957L106.335 29.4957L106.329 29.4957L106.335 29.9957ZM111.816 16.8124L111.464 17.1678L111.464 17.1678L111.816 16.8124ZM109.706 22.3103L109.206 22.3243L109.206 22.3377L109.706 22.3103ZM108.78 24.7653L109.137 25.1151L109.137 25.1151L108.78 24.7653ZM106.335 25.753L106.348 25.253L106.335 25.253L106.335 25.753ZM102.963 22.434L102.463 22.4387L102.463 22.4387L102.963 22.434ZM99.0681 22.3084C99.0563 19.389 100.818 16.7483 103.533 15.6214L103.15 14.6978C100.062 15.979 98.0547 18.9844 98.0681 22.3124L99.0681 22.3084ZM101.18 27.417C99.8144 26.066 99.0539 24.227 99.0681 22.3141L98.0681 22.3067C98.0519 24.4902 98.9201 26.5879 100.476 28.1278L101.18 27.417ZM106.329 29.4957C104.401 29.5176 102.545 28.7681 101.18 27.417L100.476 28.1278C102.033 29.6676 104.146 30.5205 106.341 30.4957L106.329 29.4957ZM113.052 25.0332C111.93 27.7325 109.279 29.4957 106.335 29.4957L106.335 30.4957C109.68 30.4957 112.697 28.4922 113.975 25.4171L113.052 25.0332ZM111.464 17.1678C113.548 19.2296 114.174 22.3345 113.052 25.0332L113.975 25.4171C115.254 22.3416 114.54 18.804 112.168 16.457L111.464 17.1678ZM103.533 15.6214C106.249 14.4943 109.38 15.1056 111.464 17.1678L112.168 16.457C109.796 14.1106 106.236 13.4168 103.15 14.6978L103.533 15.6214ZM110.205 22.2964C110.147 20.1818 108.385 18.5147 106.263 18.5536L106.282 19.5535C107.861 19.5245 109.162 20.7641 109.206 22.3243L110.205 22.2964ZM109.137 25.1151C109.875 24.3613 110.263 23.3344 110.205 22.283L109.206 22.3377C109.249 23.108 108.965 23.8614 108.422 24.4155L109.137 25.1151ZM106.322 26.2528C107.378 26.2808 108.399 25.8687 109.137 25.1151L108.422 24.4155C107.88 24.9697 107.128 25.2738 106.348 25.2532L106.322 26.2528ZM102.463 22.4387C102.483 24.5541 104.214 26.2531 106.335 26.253L106.335 25.253C104.756 25.2531 103.477 23.99 103.463 22.4293L102.463 22.4387ZM106.263 18.5536C104.142 18.5925 102.443 20.3232 102.463 22.4387L103.463 22.4293C103.448 20.8687 104.703 19.5824 106.282 19.5535L106.263 18.5536Z" fill="black"/>
<path d="M98.5681 22.3104L99.0681 22.3141L99.0681 22.3084L98.5681 22.3104ZM103.341 15.1596L103.533 15.6214L103.341 15.1596ZM106.335 29.9957L106.335 29.4957L106.329 29.4957L106.335 29.9957ZM111.816 16.8124L111.464 17.1678L111.464 17.1678L111.816 16.8124ZM109.706 22.3103L109.206 22.3243L109.206 22.3377L109.706 22.3103ZM108.78 24.7653L109.137 25.1151L109.137 25.1151L108.78 24.7653ZM106.335 25.753L106.348 25.253L106.335 25.253L106.335 25.753ZM102.963 22.434L102.463 22.4387L102.463 22.4387L102.963 22.434ZM99.0681 22.3084C99.0563 19.389 100.818 16.7483 103.533 15.6214L103.15 14.6978C100.062 15.979 98.0547 18.9844 98.0681 22.3124L99.0681 22.3084ZM101.18 27.417C99.8144 26.066 99.0539 24.227 99.0681 22.3141L98.0681 22.3067C98.0519 24.4902 98.9201 26.5879 100.476 28.1278L101.18 27.417ZM106.329 29.4957C104.401 29.5176 102.545 28.7681 101.18 27.417L100.476 28.1278C102.033 29.6676 104.146 30.5205 106.341 30.4957L106.329 29.4957ZM113.052 25.0332C111.93 27.7325 109.279 29.4957 106.335 29.4957L106.335 30.4957C109.68 30.4957 112.697 28.4922 113.975 25.4171L113.052 25.0332ZM111.464 17.1678C113.548 19.2296 114.174 22.3345 113.052 25.0332L113.975 25.4171C115.254 22.3416 114.54 18.804 112.168 16.457L111.464 17.1678ZM103.533 15.6214C106.249 14.4943 109.38 15.1056 111.464 17.1678L112.168 16.457C109.796 14.1106 106.236 13.4168 103.15 14.6978L103.533 15.6214ZM110.205 22.2964C110.147 20.1818 108.385 18.5147 106.263 18.5536L106.282 19.5535C107.861 19.5245 109.162 20.7641 109.206 22.3243L110.205 22.2964ZM109.137 25.1151C109.875 24.3613 110.263 23.3344 110.205 22.283L109.206 22.3377C109.249 23.108 108.965 23.8614 108.422 24.4155L109.137 25.1151ZM106.322 26.2528C107.378 26.2808 108.399 25.8687 109.137 25.1151L108.422 24.4155C107.88 24.9697 107.128 25.2738 106.348 25.2532L106.322 26.2528ZM102.463 22.4387C102.483 24.5541 104.214 26.2531 106.335 26.253L106.335 25.253C104.756 25.2531 103.477 23.99 103.463 22.4293L102.463 22.4387ZM106.263 18.5536C104.142 18.5925 102.443 20.3232 102.463 22.4387L103.463 22.4293C103.448 20.8687 104.703 19.5824 106.282 19.5535L106.263 18.5536Z" fill="black" fill-opacity="0.2"/>
<path d="M98.5681 22.3104L99.0681 22.3141L99.0681 22.3084L98.5681 22.3104ZM103.341 15.1596L103.533 15.6214L103.341 15.1596ZM106.335 29.9957L106.335 29.4957L106.329 29.4957L106.335 29.9957ZM111.816 16.8124L111.464 17.1678L111.464 17.1678L111.816 16.8124ZM109.706 22.3103L109.206 22.3243L109.206 22.3377L109.706 22.3103ZM108.78 24.7653L109.137 25.1151L109.137 25.1151L108.78 24.7653ZM106.335 25.753L106.348 25.253L106.335 25.253L106.335 25.753ZM102.963 22.434L102.463 22.4387L102.463 22.4387L102.963 22.434ZM99.0681 22.3084C99.0563 19.389 100.818 16.7483 103.533 15.6214L103.15 14.6978C100.062 15.979 98.0547 18.9844 98.0681 22.3124L99.0681 22.3084ZM101.18 27.417C99.8144 26.066 99.0539 24.227 99.0681 22.3141L98.0681 22.3067C98.0519 24.4902 98.9201 26.5879 100.476 28.1278L101.18 27.417ZM106.329 29.4957C104.401 29.5176 102.545 28.7681 101.18 27.417L100.476 28.1278C102.033 29.6676 104.146 30.5205 106.341 30.4957L106.329 29.4957ZM113.052 25.0332C111.93 27.7325 109.279 29.4957 106.335 29.4957L106.335 30.4957C109.68 30.4957 112.697 28.4922 113.975 25.4171L113.052 25.0332ZM111.464 17.1678C113.548 19.2296 114.174 22.3345 113.052 25.0332L113.975 25.4171C115.254 22.3416 114.54 18.804 112.168 16.457L111.464 17.1678ZM103.533 15.6214C106.249 14.4943 109.38 15.1056 111.464 17.1678L112.168 16.457C109.796 14.1106 106.236 13.4168 103.15 14.6978L103.533 15.6214ZM110.205 22.2964C110.147 20.1818 108.385 18.5147 106.263 18.5536L106.282 19.5535C107.861 19.5245 109.162 20.7641 109.206 22.3243L110.205 22.2964ZM109.137 25.1151C109.875 24.3613 110.263 23.3344 110.205 22.283L109.206 22.3377C109.249 23.108 108.965 23.8614 108.422 24.4155L109.137 25.1151ZM106.322 26.2528C107.378 26.2808 108.399 25.8687 109.137 25.1151L108.422 24.4155C107.88 24.9697 107.128 25.2738 106.348 25.2532L106.322 26.2528ZM102.463 22.4387C102.483 24.5541 104.214 26.2531 106.335 26.253L106.335 25.253C104.756 25.2531 103.477 23.99 103.463 22.4293L102.463 22.4387ZM106.263 18.5536C104.142 18.5925 102.443 20.3232 102.463 22.4387L103.463 22.4293C103.448 20.8687 104.703 19.5824 106.282 19.5535L106.263 18.5536Z" fill="black" fill-opacity="0.2"/>
<path fill-rule="evenodd" clip-rule="evenodd" d="M117.781 8.70847C116.795 9.11409 116.152 10.0696 116.152 11.1296C116.167 12.5709 117.339 13.7358 118.79 13.7502C119.857 13.7502 120.819 13.1117 121.227 12.1324C121.635 11.1532 121.41 10.026 120.655 9.27654C119.901 8.52706 118.766 8.30285 117.781 8.70847ZM120.994 15.031H116.596L116.59 29.5898H120.994V15.031Z" fill="#19191B"/>
<path d="M116.152 11.1296L115.652 11.1296L115.652 11.1346L116.152 11.1296ZM117.781 8.70847L117.971 9.17085L117.781 8.70847ZM118.79 13.7502L118.785 14.2502H118.79V13.7502ZM121.227 12.1324L121.689 12.3248L121.689 12.3248L121.227 12.1324ZM120.655 9.27654L121.008 8.92183L121.008 8.92183L120.655 9.27654ZM116.596 15.031V14.531H116.097L116.096 15.0308L116.596 15.031ZM120.994 15.031H121.494V14.531H120.994V15.031ZM116.59 29.5898L116.09 29.5896L116.09 30.0898H116.59V29.5898ZM120.994 29.5898V30.0898H121.494V29.5898H120.994ZM116.652 11.1296C116.652 10.2738 117.171 9.49992 117.971 9.17085L117.59 8.24609C116.419 8.72825 115.652 9.86549 115.652 11.1296H116.652ZM118.795 13.2502C117.613 13.2385 116.664 12.2906 116.652 11.1246L115.652 11.1346C115.669 12.8512 117.065 14.2331 118.785 14.2501L118.795 13.2502ZM120.766 11.94C120.436 12.7316 119.657 13.2502 118.79 13.2502V14.2502C120.057 14.2502 121.202 13.4917 121.689 12.3248L120.766 11.94ZM120.303 9.63125C120.914 10.2379 121.095 11.1489 120.766 11.94L121.689 12.3248C122.175 11.1574 121.906 9.81412 121.008 8.92183L120.303 9.63125ZM117.971 9.17085C118.771 8.84157 119.692 9.02401 120.303 9.63125L121.008 8.92183C120.11 8.0301 118.762 7.76413 117.59 8.24609L117.971 9.17085ZM116.596 15.531H120.994V14.531H116.596V15.531ZM117.09 29.59L117.096 15.0312L116.096 15.0308L116.09 29.5896L117.09 29.59ZM120.994 29.0898H116.59V30.0898H120.994V29.0898ZM120.494 15.031V29.5898H121.494V15.031H120.494Z" fill="black"/>
<path d="M116.152 11.1296L115.652 11.1296L115.652 11.1346L116.152 11.1296ZM117.781 8.70847L117.971 9.17085L117.781 8.70847ZM118.79 13.7502L118.785 14.2502H118.79V13.7502ZM121.227 12.1324L121.689 12.3248L121.689 12.3248L121.227 12.1324ZM120.655 9.27654L121.008 8.92183L121.008 8.92183L120.655 9.27654ZM116.596 15.031V14.531H116.097L116.096 15.0308L116.596 15.031ZM120.994 15.031H121.494V14.531H120.994V15.031ZM116.59 29.5898L116.09 29.5896L116.09 30.0898H116.59V29.5898ZM120.994 29.5898V30.0898H121.494V29.5898H120.994ZM116.652 11.1296C116.652 10.2738 117.171 9.49992 117.971 9.17085L117.59 8.24609C116.419 8.72825 115.652 9.86549 115.652 11.1296H116.652ZM118.795 13.2502C117.613 13.2385 116.664 12.2906 116.652 11.1246L115.652 11.1346C115.669 12.8512 117.065 14.2331 118.785 14.2501L118.795 13.2502ZM120.766 11.94C120.436 12.7316 119.657 13.2502 118.79 13.2502V14.2502C120.057 14.2502 121.202 13.4917 121.689 12.3248L120.766 11.94ZM120.303 9.63125C120.914 10.2379 121.095 11.1489 120.766 11.94L121.689 12.3248C122.175 11.1574 121.906 9.81412 121.008 8.92183L120.303 9.63125ZM117.971 9.17085C118.771 8.84157 119.692 9.02401 120.303 9.63125L121.008 8.92183C120.11 8.0301 118.762 7.76413 117.59 8.24609L117.971 9.17085ZM116.596 15.531H120.994V14.531H116.596V15.531ZM117.09 29.59L117.096 15.0312L116.096 15.0308L116.09 29.5896L117.09 29.59ZM120.994 29.0898H116.59V30.0898H120.994V29.0898ZM120.494 15.031V29.5898H121.494V15.031H120.494Z" fill="black" fill-opacity="0.2"/>
<path d="M116.152 11.1296L115.652 11.1296L115.652 11.1346L116.152 11.1296ZM117.781 8.70847L117.971 9.17085L117.781 8.70847ZM118.79 13.7502L118.785 14.2502H118.79V13.7502ZM121.227 12.1324L121.689 12.3248L121.689 12.3248L121.227 12.1324ZM120.655 9.27654L121.008 8.92183L121.008 8.92183L120.655 9.27654ZM116.596 15.031V14.531H116.097L116.096 15.0308L116.596 15.031ZM120.994 15.031H121.494V14.531H120.994V15.031ZM116.59 29.5898L116.09 29.5896L116.09 30.0898H116.59V29.5898ZM120.994 29.5898V30.0898H121.494V29.5898H120.994ZM116.652 11.1296C116.652 10.2738 117.171 9.49992 117.971 9.17085L117.59 8.24609C116.419 8.72825 115.652 9.86549 115.652 11.1296H116.652ZM118.795 13.2502C117.613 13.2385 116.664 12.2906 116.652 11.1246L115.652 11.1346C115.669 12.8512 117.065 14.2331 118.785 14.2501L118.795 13.2502ZM120.766 11.94C120.436 12.7316 119.657 13.2502 118.79 13.2502V14.2502C120.057 14.2502 121.202 13.4917 121.689 12.3248L120.766 11.94ZM120.303 9.63125C120.914 10.2379 121.095 11.1489 120.766 11.94L121.689 12.3248C122.175 11.1574 121.906 9.81412 121.008 8.92183L120.303 9.63125ZM117.971 9.17085C118.771 8.84157 119.692 9.02401 120.303 9.63125L121.008 8.92183C120.11 8.0301 118.762 7.76413 117.59 8.24609L117.971 9.17085ZM116.596 15.531H120.994V14.531H116.596V15.531ZM117.09 29.59L117.096 15.0312L116.096 15.0308L116.09 29.5896L117.09 29.59ZM120.994 29.0898H116.59V30.0898H120.994V29.0898ZM120.494 15.031V29.5898H121.494V15.031H120.494Z" fill="black" fill-opacity="0.2"/>
<path fill-rule="evenodd" clip-rule="evenodd" d="M138.084 27.6C139.398 26.1575 140.08 24.2537 139.977 22.3104C140.081 20.3667 139.399 18.4623 138.085 17.0193C136.77 15.5764 134.93 14.7141 132.973 14.6236C131.323 14.5342 129.72 15.1859 128.607 16.3986V15.031H124.211V35.4118H128.607V28.2192C129.72 29.4328 131.323 30.0851 132.973 29.9957C134.929 29.9048 136.769 29.0426 138.084 27.6ZM132.036 18.9329C133.951 18.901 135.533 20.4087 135.581 22.3103C135.647 23.2554 135.304 24.1836 134.639 24.8619C133.973 25.5401 133.047 25.9039 132.095 25.8618C130.18 25.862 128.623 24.3285 128.607 22.4263C128.591 20.5241 130.122 18.9647 132.036 18.9329Z" fill="#19191B"/>
<path d="M139.977 22.3104L139.478 22.2838L139.477 22.3103L139.478 22.3367L139.977 22.3104ZM132.973 14.6236L132.946 15.1229L132.95 15.1231L132.973 14.6236ZM128.607 16.3986H128.107V17.6828L128.976 16.7367L128.607 16.3986ZM128.607 15.031H129.107V14.531H128.607V15.031ZM124.211 15.031V14.531H123.711V15.031H124.211ZM124.211 35.4118H123.711V35.9118H124.211V35.4118ZM128.607 35.4118V35.9118H129.107V35.4118H128.607ZM128.607 28.2192L128.976 27.8813L128.107 26.9339V28.2192H128.607ZM132.973 29.9957L132.949 29.4962L132.946 29.4964L132.973 29.9957ZM135.581 22.3103L135.081 22.3229L135.081 22.3341L135.082 22.3453L135.581 22.3103ZM132.036 18.9329L132.028 18.4329L132.036 18.9329ZM134.639 24.8619L134.282 24.5116L134.282 24.5116L134.639 24.8619ZM132.095 25.8618L132.117 25.3623L132.106 25.3618L132.095 25.3618L132.095 25.8618ZM128.607 22.4263L128.107 22.4305L128.607 22.4263ZM139.478 22.3367C139.573 24.1461 138.939 25.9192 137.714 27.2632L138.453 27.9368C139.858 26.3958 140.586 24.3613 140.477 22.284L139.478 22.3367ZM137.715 17.3561C138.94 18.7005 139.574 20.4741 139.478 22.2838L140.477 22.3369C140.587 20.2592 139.859 18.2241 138.454 16.6826L137.715 17.3561ZM132.95 15.1231C134.775 15.2075 136.49 16.0116 137.715 17.3561L138.454 16.6826C137.05 15.1412 135.085 14.2207 132.996 14.1241L132.95 15.1231ZM128.976 16.7367C129.987 15.6346 131.445 15.0415 132.946 15.1229L133 14.1243C131.201 14.0269 129.454 14.7372 128.239 16.0605L128.976 16.7367ZM128.107 15.031V16.3986H129.107V15.031H128.107ZM124.211 15.531H128.607V14.531H124.211V15.531ZM124.711 35.4118V15.031H123.711V35.4118H124.711ZM128.607 34.9118H124.211V35.9118H128.607V34.9118ZM128.107 28.2192V35.4118H129.107V28.2192H128.107ZM132.946 29.4964C131.444 29.5778 129.987 28.9842 128.976 27.8813L128.239 28.5571C129.453 29.8814 131.201 30.5924 133 30.4949L132.946 29.4964ZM137.714 27.2632C136.489 28.6074 134.774 29.4114 132.949 29.4962L132.996 30.4951C135.084 30.3981 137.049 29.4778 138.453 27.9368L137.714 27.2632ZM136.081 22.2977C136.026 20.1186 134.214 18.3966 132.028 18.4329L132.044 19.4328C133.688 19.4055 135.04 20.6987 135.081 22.3229L136.081 22.2977ZM134.995 25.2121C135.761 24.4321 136.156 23.3637 136.08 22.2753L135.082 22.3453C135.138 23.147 134.848 23.9352 134.282 24.5116L134.995 25.2121ZM132.073 26.3613C133.167 26.4097 134.23 25.9921 134.995 25.2121L134.282 24.5116C133.716 25.0882 132.928 25.3982 132.117 25.3623L132.073 26.3613ZM128.107 22.4305C128.125 24.6103 129.909 26.362 132.095 26.3618L132.095 25.3618C130.451 25.362 129.121 24.0467 129.107 22.422L128.107 22.4305ZM132.028 18.4329C129.842 18.4693 128.089 20.2507 128.107 22.4305L129.107 22.422C129.093 20.7974 130.401 19.4601 132.044 19.4328L132.028 18.4329Z" fill="black"/>
<path d="M139.977 22.3104L139.478 22.2838L139.477 22.3103L139.478 22.3367L139.977 22.3104ZM132.973 14.6236L132.946 15.1229L132.95 15.1231L132.973 14.6236ZM128.607 16.3986H128.107V17.6828L128.976 16.7367L128.607 16.3986ZM128.607 15.031H129.107V14.531H128.607V15.031ZM124.211 15.031V14.531H123.711V15.031H124.211ZM124.211 35.4118H123.711V35.9118H124.211V35.4118ZM128.607 35.4118V35.9118H129.107V35.4118H128.607ZM128.607 28.2192L128.976 27.8813L128.107 26.9339V28.2192H128.607ZM132.973 29.9957L132.949 29.4962L132.946 29.4964L132.973 29.9957ZM135.581 22.3103L135.081 22.3229L135.081 22.3341L135.082 22.3453L135.581 22.3103ZM132.036 18.9329L132.028 18.4329L132.036 18.9329ZM134.639 24.8619L134.282 24.5116L134.282 24.5116L134.639 24.8619ZM132.095 25.8618L132.117 25.3623L132.106 25.3618L132.095 25.3618L132.095 25.8618ZM128.607 22.4263L128.107 22.4305L128.607 22.4263ZM139.478 22.3367C139.573 24.1461 138.939 25.9192 137.714 27.2632L138.453 27.9368C139.858 26.3958 140.586 24.3613 140.477 22.284L139.478 22.3367ZM137.715 17.3561C138.94 18.7005 139.574 20.4741 139.478 22.2838L140.477 22.3369C140.587 20.2592 139.859 18.2241 138.454 16.6826L137.715 17.3561ZM132.95 15.1231C134.775 15.2075 136.49 16.0116 137.715 17.3561L138.454 16.6826C137.05 15.1412 135.085 14.2207 132.996 14.1241L132.95 15.1231ZM128.976 16.7367C129.987 15.6346 131.445 15.0415 132.946 15.1229L133 14.1243C131.201 14.0269 129.454 14.7372 128.239 16.0605L128.976 16.7367ZM128.107 15.031V16.3986H129.107V15.031H128.107ZM124.211 15.531H128.607V14.531H124.211V15.531ZM124.711 35.4118V15.031H123.711V35.4118H124.711ZM128.607 34.9118H124.211V35.9118H128.607V34.9118ZM128.107 28.2192V35.4118H129.107V28.2192H128.107ZM132.946 29.4964C131.444 29.5778 129.987 28.9842 128.976 27.8813L128.239 28.5571C129.453 29.8814 131.201 30.5924 133 30.4949L132.946 29.4964ZM137.714 27.2632C136.489 28.6074 134.774 29.4114 132.949 29.4962L132.996 30.4951C135.084 30.3981 137.049 29.4778 138.453 27.9368L137.714 27.2632ZM136.081 22.2977C136.026 20.1186 134.214 18.3966 132.028 18.4329L132.044 19.4328C133.688 19.4055 135.04 20.6987 135.081 22.3229L136.081 22.2977ZM134.995 25.2121C135.761 24.4321 136.156 23.3637 136.08 22.2753L135.082 22.3453C135.138 23.147 134.848 23.9352 134.282 24.5116L134.995 25.2121ZM132.073 26.3613C133.167 26.4097 134.23 25.9921 134.995 25.2121L134.282 24.5116C133.716 25.0882 132.928 25.3982 132.117 25.3623L132.073 26.3613ZM128.107 22.4305C128.125 24.6103 129.909 26.362 132.095 26.3618L132.095 25.3618C130.451 25.362 129.121 24.0467 129.107 22.422L128.107 22.4305ZM132.028 18.4329C129.842 18.4693 128.089 20.2507 128.107 22.4305L129.107 22.422C129.093 20.7974 130.401 19.4601 132.044 19.4328L132.028 18.4329Z" fill="black" fill-opacity="0.2"/>
<path d="M139.977 22.3104L139.478 22.2838L139.477 22.3103L139.478 22.3367L139.977 22.3104ZM132.973 14.6236L132.946 15.1229L132.95 15.1231L132.973 14.6236ZM128.607 16.3986H128.107V17.6828L128.976 16.7367L128.607 16.3986ZM128.607 15.031H129.107V14.531H128.607V15.031ZM124.211 15.031V14.531H123.711V15.031H124.211ZM124.211 35.4118H123.711V35.9118H124.211V35.4118ZM128.607 35.4118V35.9118H129.107V35.4118H128.607ZM128.607 28.2192L128.976 27.8813L128.107 26.9339V28.2192H128.607ZM132.973 29.9957L132.949 29.4962L132.946 29.4964L132.973 29.9957ZM135.581 22.3103L135.081 22.3229L135.081 22.3341L135.082 22.3453L135.581 22.3103ZM132.036 18.9329L132.028 18.4329L132.036 18.9329ZM134.639 24.8619L134.282 24.5116L134.282 24.5116L134.639 24.8619ZM132.095 25.8618L132.117 25.3623L132.106 25.3618L132.095 25.3618L132.095 25.8618ZM128.607 22.4263L128.107 22.4305L128.607 22.4263ZM139.478 22.3367C139.573 24.1461 138.939 25.9192 137.714 27.2632L138.453 27.9368C139.858 26.3958 140.586 24.3613 140.477 22.284L139.478 22.3367ZM137.715 17.3561C138.94 18.7005 139.574 20.4741 139.478 22.2838L140.477 22.3369C140.587 20.2592 139.859 18.2241 138.454 16.6826L137.715 17.3561ZM132.95 15.1231C134.775 15.2075 136.49 16.0116 137.715 17.3561L138.454 16.6826C137.05 15.1412 135.085 14.2207 132.996 14.1241L132.95 15.1231ZM128.976 16.7367C129.987 15.6346 131.445 15.0415 132.946 15.1229L133 14.1243C131.201 14.0269 129.454 14.7372 128.239 16.0605L128.976 16.7367ZM128.107 15.031V16.3986H129.107V15.031H128.107ZM124.211 15.531H128.607V14.531H124.211V15.531ZM124.711 35.4118V15.031H123.711V35.4118H124.711ZM128.607 34.9118H124.211V35.9118H128.607V34.9118ZM128.107 28.2192V35.4118H129.107V28.2192H128.107ZM132.946 29.4964C131.444 29.5778 129.987 28.9842 128.976 27.8813L128.239 28.5571C129.453 29.8814 131.201 30.5924 133 30.4949L132.946 29.4964ZM137.714 27.2632C136.489 28.6074 134.774 29.4114 132.949 29.4962L132.996 30.4951C135.084 30.3981 137.049 29.4778 138.453 27.9368L137.714 27.2632ZM136.081 22.2977C136.026 20.1186 134.214 18.3966 132.028 18.4329L132.044 19.4328C133.688 19.4055 135.04 20.6987 135.081 22.3229L136.081 22.2977ZM134.995 25.2121C135.761 24.4321 136.156 23.3637 136.08 22.2753L135.082 22.3453C135.138 23.147 134.848 23.9352 134.282 24.5116L134.995 25.2121ZM132.073 26.3613C133.167 26.4097 134.23 25.9921 134.995 25.2121L134.282 24.5116C133.716 25.0882 132.928 25.3982 132.117 25.3623L132.073 26.3613ZM128.107 22.4305C128.125 24.6103 129.909 26.362 132.095 26.3618L132.095 25.3618C130.451 25.362 129.121 24.0467 129.107 22.422L128.107 22.4305ZM132.028 18.4329C129.842 18.4693 128.089 20.2507 128.107 22.4305L129.107 22.422C129.093 20.7974 130.401 19.4601 132.044 19.4328L132.028 18.4329Z" fill="black" fill-opacity="0.2"/>
<path d="M153.544 25.2207C153.544 28.5693 150.614 29.9957 147.45 29.9957C144.833 30.2312 142.337 28.8585 141.148 26.531L144.957 24.3766C145.274 25.4602 146.311 26.176 147.444 26.0943C148.498 26.0943 149.026 25.7737 149.026 25.1928C149.026 23.5899 141.816 24.4354 141.816 19.3987C141.816 16.2237 144.513 14.6237 147.561 14.6237C149.894 14.5503 152.083 15.7436 153.275 17.7384L149.524 19.7472C149.187 18.9676 148.414 18.4633 147.561 18.4663C146.798 18.4663 146.329 18.7604 146.329 19.281C146.335 20.9413 153.544 19.834 153.544 25.2207Z" fill="#19191B"/>
<path d="M153.544 25.2207C153.544 28.5693 150.614 29.9957 147.45 29.9957C144.833 30.2312 142.337 28.8585 141.148 26.531L144.957 24.3766C145.274 25.4602 146.311 26.176 147.444 26.0943C148.498 26.0943 149.026 25.7737 149.026 25.1928C149.026 23.5899 141.816 24.4354 141.816 19.3987C141.816 16.2237 144.513 14.6237 147.561 14.6237C149.894 14.5503 152.083 15.7436 153.275 17.7384L149.524 19.7472C149.187 18.9676 148.414 18.4633 147.561 18.4663C146.798 18.4663 146.329 18.7604 146.329 19.281C146.335 20.9413 153.544 19.834 153.544 25.2207Z" stroke="black"/>
<path d="M153.544 25.2207C153.544 28.5693 150.614 29.9957 147.45 29.9957C144.833 30.2312 142.337 28.8585 141.148 26.531L144.957 24.3766C145.274 25.4602 146.311 26.176 147.444 26.0943C148.498 26.0943 149.026 25.7737 149.026 25.1928C149.026 23.5899 141.816 24.4354 141.816 19.3987C141.816 16.2237 144.513 14.6237 147.561 14.6237C149.894 14.5503 152.083 15.7436 153.275 17.7384L149.524 19.7472C149.187 18.9676 148.414 18.4633 147.561 18.4663C146.798 18.4663 146.329 18.7604 146.329 19.281C146.335 20.9413 153.544 19.834 153.544 25.2207Z" stroke="black" stroke-opacity="0.2"/>
<path d="M153.544 25.2207C153.544 28.5693 150.614 29.9957 147.45 29.9957C144.833 30.2312 142.337 28.8585 141.148 26.531L144.957 24.3766C145.274 25.4602 146.311 26.176 147.444 26.0943C148.498 26.0943 149.026 25.7737 149.026 25.1928C149.026 23.5899 141.816 24.4354 141.816 19.3987C141.816 16.2237 144.513 14.6237 147.561 14.6237C149.894 14.5503 152.083 15.7436 153.275 17.7384L149.524 19.7472C149.187 18.9676 148.414 18.4633 147.561 18.4663C146.798 18.4663 146.329 18.7604 146.329 19.281C146.335 20.9413 153.544 19.834 153.544 25.2207Z" stroke="black" stroke-opacity="0.2"/>
<path d="M169.603 15.031V29.5898H165.207V28.2207C164.178 29.4462 162.62 30.1069 161.018 29.9972C158.057 29.9972 155.541 27.9016 155.541 23.9678V15.031H159.937V23.3281C159.863 24.0299 160.103 24.7287 160.594 25.2386C161.085 25.7485 161.777 26.0179 162.486 25.9751C164.098 25.9751 165.211 25.0442 165.211 22.9766V15.0354L169.603 15.031Z" fill="#19191B"/>
<path d="M169.603 15.031V29.5898H165.207V28.2207C164.178 29.4462 162.62 30.1069 161.018 29.9972C158.057 29.9972 155.541 27.9016 155.541 23.9678V15.031H159.937V23.3281C159.863 24.0299 160.103 24.7287 160.594 25.2386C161.085 25.7485 161.777 26.0179 162.486 25.9751C164.098 25.9751 165.211 25.0442 165.211 22.9766V15.0354L169.603 15.031Z" stroke="black"/>
<path d="M169.603 15.031V29.5898H165.207V28.2207C164.178 29.4462 162.62 30.1069 161.018 29.9972C158.057 29.9972 155.541 27.9016 155.541 23.9678V15.031H159.937V23.3281C159.863 24.0299 160.103 24.7287 160.594 25.2386C161.085 25.7485 161.777 26.0179 162.486 25.9751C164.098 25.9751 165.211 25.0442 165.211 22.9766V15.0354L169.603 15.031Z" stroke="black" stroke-opacity="0.2"/>
<path d="M169.603 15.031V29.5898H165.207V28.2207C164.178 29.4462 162.62 30.1069 161.018 29.9972C158.057 29.9972 155.541 27.9016 155.541 23.9678V15.031H159.937V23.3281C159.863 24.0299 160.103 24.7287 160.594 25.2386C161.085 25.7485 161.777 26.0179 162.486 25.9751C164.098 25.9751 165.211 25.0442 165.211 22.9766V15.0354L169.603 15.031Z" stroke="black" stroke-opacity="0.2"/>
<path d="M194.812 20.6501V29.5883H190.416V21.0281C190.416 19.5722 189.713 18.6413 188.307 18.6413C186.841 18.6413 186.02 19.6604 186.02 21.3781V29.5883H181.625V21.0281C181.625 19.5722 180.922 18.6413 179.514 18.6413C178.048 18.6413 177.228 19.6604 177.228 21.3781V29.5883H172.832V15.0295H177.228V16.3678C178.154 15.1614 179.633 14.5041 181.155 14.6222C182.686 14.5478 184.143 15.277 184.994 16.5428C185.984 15.2195 187.589 14.4942 189.244 14.6222C192.608 14.6236 194.812 17.0104 194.812 20.6501Z" fill="#19191B"/>
<path d="M194.812 20.6501V29.5883H190.416V21.0281C190.416 19.5722 189.713 18.6413 188.307 18.6413C186.841 18.6413 186.02 19.6604 186.02 21.3781V29.5883H181.625V21.0281C181.625 19.5722 180.922 18.6413 179.514 18.6413C178.048 18.6413 177.228 19.6604 177.228 21.3781V29.5883H172.832V15.0295H177.228V16.3678C178.154 15.1614 179.633 14.5041 181.155 14.6222C182.686 14.5478 184.143 15.277 184.994 16.5428C185.984 15.2195 187.589 14.4942 189.244 14.6222C192.608 14.6236 194.812 17.0104 194.812 20.6501Z" stroke="black"/>
<path d="M194.812 20.6501V29.5883H190.416V21.0281C190.416 19.5722 189.713 18.6413 188.307 18.6413C186.841 18.6413 186.02 19.6604 186.02 21.3781V29.5883H181.625V21.0281C181.625 19.5722 180.922 18.6413 179.514 18.6413C178.048 18.6413 177.228 19.6604 177.228 21.3781V29.5883H172.832V15.0295H177.228V16.3678C178.154 15.1614 179.633 14.5041 181.155 14.6222C182.686 14.5478 184.143 15.277 184.994 16.5428C185.984 15.2195 187.589 14.4942 189.244 14.6222C192.608 14.6236 194.812 17.0104 194.812 20.6501Z" stroke="black" stroke-opacity="0.2"/>
<path d="M194.812 20.6501V29.5883H190.416V21.0281C190.416 19.5722 189.713 18.6413 188.307 18.6413C186.841 18.6413 186.02 19.6604 186.02 21.3781V29.5883H181.625V21.0281C181.625 19.5722 180.922 18.6413 179.514 18.6413C178.048 18.6413 177.228 19.6604 177.228 21.3781V29.5883H172.832V15.0295H177.228V16.3678C178.154 15.1614 179.633 14.5041 181.155 14.6222C182.686 14.5478 184.143 15.277 184.994 16.5428C185.984 15.2195 187.589 14.4942 189.244 14.6222C192.608 14.6236 194.812 17.0104 194.812 20.6501Z" stroke="black" stroke-opacity="0.2"/>
<path d="M198.531 14.9413C200.333 14.9413 201.793 13.4902 201.793 11.7002C201.793 9.91011 200.333 8.45898 198.531 8.45898C196.729 8.45898 195.268 9.91011 195.268 11.7002C195.268 13.4902 196.729 14.9413 198.531 14.9413Z" fill="#19191B"/>
<path d="M198.531 14.9413C200.333 14.9413 201.793 13.4902 201.793 11.7002C201.793 9.91011 200.333 8.45898 198.531 8.45898C196.729 8.45898 195.268 9.91011 195.268 11.7002C195.268 13.4902 196.729 14.9413 198.531 14.9413Z" stroke="black"/>
<path d="M198.531 14.9413C200.333 14.9413 201.793 13.4902 201.793 11.7002C201.793 9.91011 200.333 8.45898 198.531 8.45898C196.729 8.45898 195.268 9.91011 195.268 11.7002C195.268 13.4902 196.729 14.9413 198.531 14.9413Z" stroke="black" stroke-opacity="0.2"/>
<path d="M198.531 14.9413C200.333 14.9413 201.793 13.4902 201.793 11.7002C201.793 9.91011 200.333 8.45898 198.531 8.45898C196.729 8.45898 195.268 9.91011 195.268 11.7002C195.268 13.4902 196.729 14.9413 198.531 14.9413Z" stroke="black" stroke-opacity="0.2"/>
</svg>
